<svg id="visual" viewBox="0 0 900 200" width="900" height="200" xmlns="http://www.w3.org/2000/svg" xmlns:xlink="http://www.w3.org/1999/xlink" version="1.1"><rect x="0" y="0" width="900" height="200" fill="#ffffff"></rect><path d="M0 176L18.8 163.3C37.7 150.7 75.3 125.3 112.8 114.8C150.3 104.3 187.7 108.7 225.2 120.5C262.7 132.3 300.3 151.7 337.8 160.8C375.3 170 412.7 169 450.2 160.3C487.7 151.7 525.3 135.3 562.8 134.5C600.3 133.7 637.7 148.3 675.2 153.7C712.7 159 750.3 155 787.8 152.2C825.3 149.3 862.7 147.7 881.3 146.8L900 146L900 0L881.3 0C862.7 0 825.3 0 787.8 0C750.3 0 712.7 0 675.2 0C637.7 0 600.3 0 562.8 0C525.3 0 487.7 0 450.2 0C412.7 0 375.3 0 337.8 0C300.3 0 262.7 0 225.2 0C187.7 0 150.3 0 112.8 0C75.3 0 37.7 0 18.8 0L0 0Z" fill="#65cd99"></path><path d="M0 122L18.8 117.8C37.7 113.7 75.3 105.3 112.8 97.3C150.3 89.3 187.7 81.7 225.2 81.3C262.7 81 300.3 88 337.8 92.2C375.3 96.3 412.7 97.7 450.2 105.3C487.7 113 525.3 127 562.8 132.3C600.3 137.7 637.7 134.3 675.2 125.2C712.7 116 750.3 101 787.8 100C825.3 99 862.7 112 881.3 118.5L900 125L900 0L881.3 0C862.7 0 825.3 0 787.8 0C750.3 0 712.7 0 675.2 0C637.7 0 600.3 0 562.8 0C525.3 0 487.7 0 450.2 0C412.7 0 375.3 0 337.8 0C300.3 0 262.7 0 225.2 0C187.7 0 150.3 0 112.8 0C75.3 0 37.7 0 18.8 0L0 0Z" fill="#5eba85"></path><path d="M0 62L18.8 63.3C37.7 64.7 75.3 67.3 112.8 75.2C150.3 83 187.7 96 225.2 93.8C262.7 91.7 300.3 74.3 337.8 73.7C375.3 73 412.7 89 450.2 97.2C487.7 105.3 525.3 105.7 562.8 103.7C600.3 101.7 637.7 97.3 675.2 92.3C712.7 87.3 750.3 81.7 787.8 74.7C825.3 67.7 862.7 59.3 881.3 55.2L900 51L900 0L881.3 0C862.7 0 825.3 0 787.8 0C750.3 0 712.7 0 675.2 0C637.7 0 600.3 0 562.8 0C525.3 0 487.7 0 450.2 0C412.7 0 375.3 0 337.8 0C300.3 0 262.7 0 225.2 0C187.7 0 150.3 0 112.8 0C75.3 0 37.7 0 18.8 0L0 0Z" fill="#56a871"></path><path d="M0 81L18.8 74.8C37.7 68.7 75.3 56.3 112.8 52.5C150.3 48.7 187.7 53.3 225.2 56.3C262.7 59.3 300.3 60.7 337.8 63.5C375.3 66.3 412.7 70.7 450.2 65.8C487.7 61 525.3 47 562.8 47.7C600.3 48.3 637.7 63.7 675.2 64.5C712.7 65.3 750.3 51.7 787.8 47.2C825.3 42.7 862.7 47.3 881.3 49.7L900 52L900 0L881.3 0C862.7 0 825.3 0 787.8 0C750.3 0 712.7 0 675.2 0C637.7 0 600.3 0 562.8 0C525.3 0 487.7 0 450.2 0C412.7 0 375.3 0 337.8 0C300.3 0 262.7 0 225.2 0C187.7 0 150.3 0 112.8 0C75.3 0 37.7 0 18.8 0L0 0Z" fill="#4e965f"></path><path d="M0 20L18.8 19.7C37.7 19.3 75.3 18.7 112.8 19.3C150.3 20 187.7 22 225.2 24.7C262.7 27.3 300.3 30.7 337.8 33.8C375.3 37 412.7 40 450.2 37.2C487.7 34.3 525.3 25.7 562.8 22C600.3 18.3 637.7 19.7 675.2 22.7C712.7 25.7 750.3 30.3 787.8 30.5C825.3 30.7 862.7 26.3 881.3 24.2L900 22L900 0L881.3 0C862.7 0 825.3 0 787.8 0C750.3 0 712.7 0 675.2 0C637.7 0 600.3 0 562.8 0C525.3 0 487.7 0 450.2 0C412.7 0 375.3 0 337.8 0C300.3 0 262.7 0 225.2 0C187.7 0 150.3 0 112.8 0C75.3 0 37.7 0 18.8 0L0 0Z" fill="#46844d"></path></svg>